<svg width="8874" height="8857" xmlns="http://www.w3.org/2000/svg" xmlns:xlink="http://www.w3.org/1999/xlink" xml:space="preserve" overflow="hidden"><g transform="translate(-2059 -538)"><path d="M6520.03 538.532 8863.34 2881.85 7774.74 3970.45 7748.52 3945.87C7487.72 3712.89 7153.37 3572.93 6788.83 3572.93 6398.24 3572.93 6042.32 3733.6 5774.38 3997.2L5771.63 4000.04 4413.54 2645.02Z" fill-rule="evenodd"/><path d="M6453.37 9394.12 4110.06 7050.8 5198.66 5962.2 5224.88 5986.78C5485.68 6219.76 5820.03 6359.72 6184.57 6359.72 6575.16 6359.72 6931.08 6199.05 7199.02 5935.45L7201.77 5932.61 8559.86 7287.63Z" fill-rule="evenodd"/><path d="M9140.7 3136.34 10932.2 4883.73 8846.65 7021.95 8052.75 6247.6 8077.93 6221.19C8314.89 5960.48 8459.31 5614.15 8459.31 5234.08 8459.31 4854.02 8314.89 4507.68 8077.93 4246.97L8054.77 4222.68Z" fill-rule="evenodd"/><path d="M3851.33 6744.43 2059.82 4997.03 4145.38 2858.81 4939.28 3633.16 4914.1 3659.57C4677.14 3920.28 4532.72 4266.62 4532.72 4646.68 4532.72 5026.75 4677.14 5373.08 4914.1 5633.8L4937.26 5658.09Z" fill-rule="evenodd"/><path d="M5821.5 4988.5C5821.5 4616.81 6122.81 4315.5 6494.5 4315.5 6866.19 4315.5 7167.5 4616.81 7167.5 4988.5 7167.5 5360.19 6866.19 5661.5 6494.5 5661.5 6122.81 5661.5 5821.5 5360.19 5821.5 4988.5Z" stroke="#000000" stroke-width="4.58333" stroke-miterlimit="8" fill-rule="evenodd"/></g></svg>